<?xml version="1.0" encoding="utf-8"?>
<!-- Generator: Adobe Illustrator 18.1.1, SVG Export Plug-In . SVG Version: 6.00 Build 0)  -->
<!DOCTYPE svg PUBLIC "-//W3C//DTD SVG 1.1//EN" "http://www.w3.org/Graphics/SVG/1.1/DTD/svg11.dtd">
<svg version="1.1" id="Layer_1" xmlns="http://www.w3.org/2000/svg" xmlns:xlink="http://www.w3.org/1999/xlink" x="0px" y="0px"
	 width="761px" height="559px" viewBox="0 0 761 559" enable-background="new 0 0 761 559" xml:space="preserve">
<g>
	<path fill="#003764" d="M541.3,448.1h-2.5v42.2h2.5c13.2,0,23.3-6.1,23.3-20.4C564.6,454.6,555.8,448.1,541.3,448.1z"/>
	<path fill="#003764" d="M268,448.1c-12.6,0-20.4,9.7-20.4,21.3c0,12.4,8.4,21,20.4,21c12,0,20.4-8.5,20.4-21
		C288.4,457.8,280.6,448.1,268,448.1z"/>
	<path fill="#003764" d="M143,447.8c0-8.1-7.4-7.5-13.2-7.5h-2.7v15.6h3.6C136.5,455.9,143,455.3,143,447.8z"/>
	<path fill="#003764" d="M131,478.9h-3.9V497h4.5c6.5,0,15.9-0.1,15.9-9.1C147.5,478.7,137.3,478.9,131,478.9z"/>
	<path fill="#003764" d="M593.9,297.9c-43.8,30.8-78.5,31.1-80.5,31.1c0,0,0,0,0,0l-0.2,0.2c-34.9-0.8-51.5-17.8-59.4-32.1
		c-8.3-15.2-8.3-30.3-8.3-31l0.1-14.3l13.3,5.3c18.8,7.5,29,6.9,30.1,6.8l1-0.2l0.7,0.1c5.3,0.1,9.4-1.4,12.6-4.6
		c4.7-4.7,7.5-13.1,7.5-23.2c-1-11.4-8.7-16.7-8.8-16.8l-0.4-0.2c-14.3-9.9-32.8-5.6-55.1,12.9c-18.6,15.4-32.3,34.8-32.4,35
		l-0.1,0.2c-19.1,26-39.1,44-59.4,53.5c-15.1,7.1-25.4,7-27.6,6.8c-34.7-1.7-51.4-19.2-59.3-33.6c-8.4-15.4-8.6-30.5-8.6-31.2v-13.4
		l12.9,4c23,7.3,38.2-2.9,38.9-3.4l0.2-0.2l0,0c6.5-4.3,14.4-11.2,15.1-18.9c0.6-7.2-5.1-12.9-5.2-12.9l-0.2-0.2
		c-14-13.7-51.4,12.7-67.5,27.8c-17.3,18-57.1,53.9-58.8,55.4l-0.3,0.3c-11.9,10-23.7,16.6-35.1,20.5c-0.7,7-1,14.4-1.1,21.4h446.7
		c-0.1-17-1.8-32.6-5.2-48.1C596.3,296.7,594.3,297.7,593.9,297.9z"/>
	<path fill="#003764" d="M380.5,0C170.4,0,0,174.8,0,390.5C0,450.8,13.3,508,37.2,559h686.7c23.8-51,37.2-108.2,37.2-168.5
		C761,174.8,590.6,0,380.5,0z M144.3,523h-54V413.9h46.2c21.1,0,42.7,5.1,42.7,30.2c0,9.5-4.8,19-14.3,22v0.9
		c11.9,4.2,19.4,12.9,19.4,25.9C184.2,515.3,163.4,523,144.3,523z M268,524.8c-33.3,0-60.3-21-60.3-56c0-34.3,27.2-56.6,60.3-56.6
		c33.1,0,60.3,22.3,60.3,56.6C328.3,503.8,301.2,524.8,268,524.8z M464.2,523h-37.9l-34.9-57.3h-1.2c1.3,7.5,2.5,14.6,2.5,21.8V523
		h-37.9V413.9h38.1l35.6,60.5h1.2c-1.6-9.1-3.3-18.5-3.3-27.8v-32.7h37.9V523z M549.4,523h-50.2V413.9h40.4
		c36.6,0,64.7,16.1,64.7,56.1C604.2,502.5,581.4,523,549.4,523z M670,523h-39.6V413.9H670V523z M711.4,284.7
		c-22.2-8.6-46.7-7.5-46.9-7.5l-0.2,0.1c-18.3,0.6-34.4,5-46.6,9.6c4.2,18.2,6.4,37.2,6.5,56.2h72.4c5.4,0,9.8,4.1,9.8,9.5
		s-4.4,9.5-9.8,9.5H61.7c-5.4,0-9.8-4.1-9.8-9.5s4.4-9.5,9.8-9.5h76.8c0-6,0.2-11.3,0.6-16.9c-17.7,1.9-33.6-1.8-46.2-6.6
		c-26.2-10.1-43.3-27.5-44-28.3c-3.8-3.9-3.7-10.1,0.2-13.8c3.9-3.8,10.1-3.7,13.8,0.2c0.4,0.4,15.4,15.5,37.6,23.8
		c14,5.3,27.6,6.7,40.8,4.4c7.8-51.7,31.3-99.6,68.2-137.3c28.5-29.2,63-50.3,100.5-62c7-34.9,37.8-61.1,74.7-61.1
		c37.8,0,69.1,27.5,75.2,63.6c34.7,12.1,66.6,32.3,93.2,59.5c27.6,28.2,47.7,62.1,59.4,99.1c13.6-4.9,31.1-9.4,51-10.1
		c2.1-0.1,29.2-1.1,54.8,8.8c5,1.9,7.5,7.6,5.6,12.7C722.1,284.1,716.5,286.6,711.4,284.7z"/>
	<path fill="#003764" d="M239.3,231.7l0.3-0.3c0.6-0.6,15-14,32.9-24.5c33.6-19.7,52.2-12.6,61.8-3.1c1.7,1.6,12.5,12.7,11.2,28.7
		c-1,12.5-9,23.8-23.6,33.5c-2.2,1.5-17.7,11.5-40.9,9.1c0.9,3.1,2.3,6.6,4.2,10c8,14.2,22.4,21.9,42.7,22.9l0.3,0.1c0,0,0,0,0,0
		c2.2,0,31.9-1.1,69.7-52.5c1.3-1.8,15.6-21.9,35.6-38.5c37.2-30.9,63.4-24.8,78.9-14.2c6.1,3.9,16.4,14.9,17.7,32.1l0,0.7
		c0,15.7-4.7,29-13.4,37.5c-6.8,6.7-15.7,10.2-25.9,10.2c-2.8,0.3-10.6,0.6-23.2-2.7c0.9,2.5,2,5.1,3.5,7.7
		c7.8,13.8,22,21.1,42.2,21.6c10.4-0.1,38.3-6,69.3-27.8l0.2-0.1c0.5-0.3,4.6-3,11.6-6.6c-10.6-34.8-29.4-66.6-55.3-93.1
		c-22.7-23.2-49.5-40.9-78.7-52.2c-4.2,38.2-36.5,67.9-75.8,67.9c-40.1,0-73-31-76-70.3c-31.8,11.1-60.9,29.6-85.3,54.6
		c-31.6,32.3-52.6,72.7-61.2,116.6c6.5-3.3,12.9-7.5,19.1-12.7C184,283.9,223,248.7,239.3,231.7z"/>
</g>
</svg>
